<svg
  xmlns="http://www.w3.org/2000/svg"
  version="1.0"
  height="1em"
  viewBox="0 0 623.276 485.837"
>
  <path
    d="M50.86 1.95c-9.2 2.4-21.2 8.7-28 14.6-15.1 13.2-24.2 35-22.7 54.1 2.2 29.4 19.4 51.5 47 60.9 7.3 2.4 9.7 2.7 26.8 3.2 10.3.2 18.7.9 18.7 1.4 0 .5-.9 2.7-2.1 4.9-3.8 7.5-10.7 26.3-13.8 37.4-9.7 35.1-11.3 72.8-4.6 109 3.5 18.8 10.9 42.5 17.4 55.3 4.2 8.4 4.9 7.9-10.6 8.5-23.2.8-35.2 5.6-49.4 19.7-13.5 13.4-19.9 28.3-19.9 46.5 0 12.4 1.5 19.5 6.1 29.4 4.9 10.5 10 17.2 18.2 23.9 8 6.4 16.6 10.8 26.5 13.3 7.5 1.9 13.1 1.9 258.2 1.7l250.5-.3 8-2.8c10.7-3.8 18.6-8.8 26.5-16.7 25.8-25.8 26.2-66.7.9-93.4-8.8-9.3-16.9-14.5-28.4-18.3-7.2-2.4-9.9-2.7-26.7-3.1-10.4-.2-18.8-.8-18.8-1.2 0-.4 1.6-4.3 3.6-8.6 8.4-18.5 15.6-43.9 19-67.1 2-13.3 2.2-44.9.5-58.8-3.2-26.2-11.7-56.2-21.1-74.6-1.1-2.1-2-4.2-2-4.7s6.2-1.2 13.8-1.5c15.4-.6 23-2.4 34.7-8.5 9.5-5 21.7-17.2 26.8-26.8 10.3-19.7 10.3-43.8 0-63.7-5.6-10.8-18.2-23.1-29.3-28.5-15.8-7.8 5.5-7.2-270.8-7.1-240.3 0-247.9.1-255 1.9zm29.3 17.5c8.5 2.3 15.2 6.2 22.3 13.2 24 23.7 17.4 63.4-13.1 78.7-39.1 19.6-82.8-18.8-68.6-60.3 5.1-14.8 18.7-27.4 34-31.5 7.2-1.9 18.1-2 25.4-.1zm254.3-.5c41.9 4.5 80.9 20 114.2 45.5 65.5 50.2 98 130.7 86 212.5-3.1 20.8-12.7 50.3-22.2 68.2l-3.1 5.8h-132l6.9-4.9c27.2-19.1 46.6-49.9 51.9-82.1 6.5-40.1-6.8-81.4-35-109.6-14.8-14.7-29.9-24.2-48.5-30.6-19.2-6.6-11-6.1-129.7-6.5-59.6-.2-108.3-.6-108.3-.9 0-.3 2.1-2.9 4.6-5.7 5.2-5.9 12.6-20.6 14.5-28.7 1.8-7.7 1.5-23.2-.5-31-2.4-9.2-7.6-19.5-13.6-26.8l-5.1-6.2h105.1c65.6 0 108.7.4 114.8 1zm224.1.5c8.7 2.3 16.2 6.6 22.6 13 9.9 9.9 14.5 21 14.5 35 0 13.4-5.3 25.7-14.9 34.8-12 11.4-22.1 14.7-45.5 14.7h-15.1l-5-7.7c-11.6-18-31.8-40.4-48.9-54.3-12.8-10.3-32.1-22.7-47-30.1l-14-6.9h74c60.9 0 74.8.3 79.3 1.5zm-316.4 118.2c-28.9 19.3-49.1 50.2-55 84-1.9 11-1.9 31.6 0 42.6 5.6 31.9 22.6 59.9 48.5 79.3 9.9 7.5 29.2 17.3 40 20.3 18.6 5.1 17.8 5.1 129.1 5.1 57.2 0 103.9.3 103.9.6s-2.1 2.9-4.6 5.7c-5.2 5.9-12.6 20.5-14.5 28.7-1.8 7.6-1.6 23.1.5 31 2.2 8.9 7.5 19.3 13.5 26.7l5.1 6.3h-105.5c-66.7 0-109.2-.4-115.3-1-36.4-4-68.9-15.6-99.7-35.8-54.7-35.8-90.8-92.7-100.1-157.8-2.3-16.3-2.3-45 0-60.9 3.4-23.5 11.4-49.1 21.7-69.8l3.9-7.7h132.5zm96 .7c30.7 7.9 56 28.5 70 56.9 7.5 15.2 10.5 27.2 11.2 44.7.4 11.3.2 15.2-1.6 23.8-7.8 37.8-33 67-69.6 80.7-13.2 4.9-26 6.8-41.5 6.2-20.1-.9-37.8-6.5-54.1-17.2-10.9-7.1-27.2-24.1-33.6-35-25-42.2-19.1-94.7 14.5-129.7 16.8-17.4 39-29 62.8-32.8 10.6-1.6 30.7-.5 41.9 2.4zm-227.8 241.4c8.2 12.3 22.8 29.6 32.9 39.2 19.5 18.3 46 36.3 66.7 45.1l7.9 3.4-73.8.3c-81 .2-80.3.3-90.8-5.8-16.4-9.4-25.6-25-25.6-43.4 0-13.5 3.8-23.2 12.9-33 5.7-6 11.3-9.9 18.2-12.7 8.1-3.2 12-3.7 28.9-3.8h15.5zm453.9-9.7c16.8 3 32.3 16.1 37.9 31.9 9.6 27.1-6.3 57.3-34 64.5-17.5 4.5-36.8-1.2-49.1-14.6-14.1-15.4-16.9-37.8-7.2-56.2 4.7-8.7 13-16.8 22-21.1 10.9-5.2 19.5-6.5 30.4-4.5z"
    fill="currentColor"
  />
</svg>